<svg width="600" height="600" viewBox="0 0 600 600" fill="none" xmlns="http://www.w3.org/2000/svg">
<path d="M319.667 297.324C319.667 295.522 319.637 293.75 319.607 292.009C319.547 289.78 319.487 287.611 319.427 285.412C319.367 283.243 319.278 281.074 319.188 278.936C319.098 276.798 318.978 274.66 318.858 272.553C318.739 270.445 318.619 268.337 318.469 266.26C318.32 264.183 318.17 262.106 317.99 260.06C317.96 259.632 317.9 259.205 317.871 258.777C317.781 257.891 317.721 256.975 317.631 256.089C317.541 254.928 317.422 253.768 317.302 252.607C317.152 250.988 316.973 249.431 316.823 247.873C311.494 198.208 298.802 158.653 279.433 130.094C278.954 129.361 278.445 128.628 277.936 127.895C256.233 96.2509 227.075 78.5963 192.709 76.2443C191.422 76.1527 190.134 76.0916 188.817 76.0611C187.47 76.0305 186.153 76 184.806 76C183.788 76 182.77 76 181.752 76.0611H181.513C181.393 76.0305 181.303 76.0611 181.184 76.0611H180.944C179.926 76 178.909 76 177.891 76C176.544 76 175.226 76.0305 173.879 76.0611C137.837 77.2829 107.272 95.0596 84.7604 127.895C84.2515 128.628 83.7426 129.361 83.2636 130.094C63.8951 158.653 51.2023 198.208 45.8738 247.873C45.6642 249.858 45.4546 251.905 45.275 253.951C45.2451 254.409 45.1851 254.898 45.1553 255.356C45.0355 256.486 44.9158 257.647 44.826 258.777C44.7961 259.205 44.7662 259.632 44.7063 260.06C44.6764 260.396 44.6464 260.701 44.6464 261.037C44.4967 262.748 44.377 264.489 44.2572 266.26C44.0776 268.337 43.9279 270.445 43.8381 272.553C43.7184 274.66 43.6286 276.798 43.5088 278.936C43.449 280.677 43.3592 282.418 43.3292 284.19C43.2993 284.587 43.2694 285.015 43.2694 285.412C43.2095 287.611 43.1496 289.78 43.0897 292.009C43.0599 293.75 43.0299 295.522 43.0299 297.324C43 297.446 43 297.568 43 297.691V298.424V298.668V301.448V301.692V302.272C43 302.455 43 302.639 43.0299 302.791C43.0299 304.594 43.0599 306.365 43.0897 308.106C43.1496 310.336 43.2095 312.535 43.2694 314.704C43.2694 315.131 43.2992 315.528 43.3292 315.956C43.3591 317.697 43.4489 319.469 43.5088 321.179C43.6286 323.317 43.7184 325.455 43.8381 327.563C43.9281 329.701 44.0776 331.809 44.2572 333.886C44.2871 334.283 44.2871 334.68 44.3471 335.077C44.407 335.993 44.4669 336.909 44.5268 337.826L44.6167 338.925C44.6765 339.475 44.7066 340.025 44.7664 340.575C44.9161 342.438 45.0957 344.332 45.2753 346.164C45.4549 348.089 45.6345 349.982 45.8441 351.876C45.8739 351.998 45.8739 352.151 45.8739 352.273C51.2024 401.938 63.8953 441.463 83.2637 470.052C83.7427 470.785 84.2516 471.518 84.7605 472.251C106.464 503.895 135.621 521.55 169.988 523.902C171.275 523.963 172.562 524.054 173.879 524.085C175.197 524.116 176.544 524.146 177.891 524.146C178.909 524.146 179.926 524.146 180.944 524.085H181.184C181.274 524.116 181.393 524.116 181.513 524.085C181.573 524.116 181.663 524.085 181.753 524.085C182.77 524.146 183.788 524.146 184.806 524.146C186.153 524.146 187.5 524.116 188.817 524.085C190.135 524.054 191.422 523.963 192.709 523.902C227.075 521.55 256.233 503.895 277.936 472.251C278.445 471.518 278.954 470.785 279.433 470.052C298.802 441.463 311.494 401.938 316.823 352.273C317.003 350.715 317.152 349.127 317.302 347.539C317.362 346.867 317.422 346.195 317.482 345.523L317.571 344.515C317.601 344.362 317.631 344.21 317.631 344.026C317.721 343.14 317.781 342.255 317.871 341.369C317.961 340.361 318.021 339.353 318.11 338.345C318.23 336.848 318.35 335.382 318.47 333.886C318.619 331.778 318.739 329.701 318.859 327.563C318.979 325.455 319.098 323.317 319.188 321.179C319.278 319.041 319.368 316.872 319.428 314.704C319.458 313.787 319.487 312.871 319.487 311.955C319.547 310.672 319.577 309.389 319.607 308.106C319.637 306.365 319.667 304.594 319.667 302.791C319.697 302.639 319.697 302.455 319.697 302.272V301.692V301.448V298.668V298.424V297.691V297.599C319.697 297.507 319.697 297.416 319.667 297.324ZM181.034 477.81C180.734 477.81 180.435 477.81 180.166 477.78H179.896C179.657 477.78 179.447 477.78 179.238 477.749C179.208 477.78 179.178 477.749 179.178 477.749H178.819C178.699 477.749 178.579 477.749 178.459 477.719C178.1 477.719 177.741 477.688 177.382 477.627C135.711 474.053 105.296 417.669 102.452 314.215C102.333 309.603 102.273 304.93 102.243 300.134V300.012C102.273 295.216 102.333 290.543 102.452 285.931C105.296 182.447 135.711 126.062 177.382 122.488L178.459 122.397C178.579 122.397 178.699 122.397 178.819 122.366C178.909 122.336 178.998 122.336 179.088 122.366H179.178C179.208 122.366 179.208 122.366 179.238 122.366H179.417H179.447C179.687 122.336 179.896 122.336 180.166 122.336C180.675 122.305 181.154 122.305 181.663 122.305C181.962 122.305 182.261 122.305 182.531 122.336C182.86 122.336 183.159 122.336 183.459 122.366C183.519 122.336 183.549 122.336 183.608 122.366C183.698 122.336 183.788 122.366 183.878 122.366C183.968 122.397 184.057 122.397 184.177 122.397C184.536 122.427 184.926 122.458 185.315 122.488C226.985 126.062 257.4 182.447 260.244 285.931C260.364 290.543 260.424 295.216 260.454 300.012V300.134C260.424 304.93 260.364 309.603 260.244 314.215C257.4 417.669 226.985 474.053 185.315 477.627C184.955 477.688 184.566 477.719 184.177 477.719C183.968 477.749 183.758 477.749 183.519 477.749C183.519 477.749 183.489 477.749 183.459 477.749C183.249 477.78 183.04 477.78 182.8 477.78H182.531C182.052 477.81 181.543 477.81 181.034 477.81Z" fill="black"/>
<path d="M557 138.829V84.6133H369.697V138.829H431.868V461.286H369.697V515.532H557V461.286H494.799V138.829H557Z" fill="black"/>
<path d="M182.066 339.85C197.701 339.85 210.376 321.975 210.376 299.925C210.376 277.875 197.701 260 182.066 260C166.431 260 153.757 277.875 153.757 299.925C153.757 321.975 166.431 339.85 182.066 339.85Z" fill="black"/>
</svg>
