<?xml version="1.0" encoding="UTF-8" standalone="no"?>
<!-- Generator: Adobe Illustrator 24.0.2, SVG Export Plug-In . SVG Version: 6.00 Build 0)  -->

<svg
   xmlns:dc="http://purl.org/dc/elements/1.1/"
   xmlns:cc="http://creativecommons.org/ns#"
   xmlns:rdf="http://www.w3.org/1999/02/22-rdf-syntax-ns#"
   xmlns:svg="http://www.w3.org/2000/svg"
   xmlns="http://www.w3.org/2000/svg"
   xmlns:sodipodi="http://sodipodi.sourceforge.net/DTD/sodipodi-0.dtd"
   xmlns:inkscape="http://www.inkscape.org/namespaces/inkscape"
   version="1.1"
   id="Layer_1"
   x="0px"
   y="0px"
   viewBox="0 0 850.89 500.28"
   xml:space="preserve"
   sodipodi:docname="Codyn-02 (1) (copy).svg"
   inkscape:version="0.92.5 (2060ec1f9f, 2020-04-08)"
   width="850.89001"
   height="500.28003"><metadata
   id="metadata17"><rdf:RDF><cc:Work
       rdf:about=""><dc:format>image/svg+xml</dc:format><dc:type
         rdf:resource="http://purl.org/dc/dcmitype/StillImage" /><dc:title></dc:title></cc:Work></rdf:RDF></metadata><defs
   id="defs15" /><sodipodi:namedview
   pagecolor="#000000"
   bordercolor="#666666"
   borderopacity="1"
   objecttolerance="10"
   gridtolerance="10"
   guidetolerance="10"
   inkscape:pageopacity="0"
   inkscape:pageshadow="2"
   inkscape:window-width="1848"
   inkscape:window-height="1016"
   id="namedview13"
   showgrid="false"
   inkscape:zoom="1.1213358"
   inkscape:cx="424.27067"
   inkscape:cy="326.77856"
   inkscape:window-x="72"
   inkscape:window-y="27"
   inkscape:window-maximized="1"
   inkscape:current-layer="Layer_1"
   showguides="false" />
<style
   type="text/css"
   id="style2">
	.st0{fill:#000000;}
</style>
<polygon
   style="fill: #000000;"
   points="346.23,244.85 346.23,227.1 284.74,227.1 284.74,244.85 305.16,244.85 305.16,350.42 284.74,350.42 284.74,368.18 346.23,368.18 346.23,350.42 325.82,350.42 325.82,244.85 "
   id="polygon4"
   transform="matrix(3.0460736,0,0,3.0544317,-856.37966,-660.99956)" />
<polygon
   style="fill: #000000;"
   points="557.15,244.85 557.15,227.1 495.66,227.1 495.66,244.85 516.07,244.85 516.07,350.42 495.66,350.42 495.66,368.18 557.15,368.18 557.15,350.42 536.73,350.42 536.73,244.85 "
   id="polygon6"
   transform="matrix(3.0460736,0,0,3.0544317,-856.37966,-660.99956)" />
<ellipse
   cx="426.71805"
   cy="248.12151"
   id="circle8"
   rx="40.147259"
   ry="40.257408"
   style="stroke-width:3.05025029; fill: #000000;" />
<path
   d="m 570.73636,245.37245 c 0,-1.80213 -0.0304,-3.57369 -0.0608,-5.31473 -0.061,-2.22974 -0.12182,-4.39836 -0.18276,-6.59755 -0.0608,-2.16867 -0.1523,-4.33732 -0.24368,-6.4754 -0.0915,-2.13811 -0.21321,-4.27623 -0.33506,-6.38377 -0.12184,-2.10756 -0.2437,-4.21511 -0.39599,-6.29214 -0.1523,-2.077 -0.30459,-4.15401 -0.48737,-6.20049 -0.0304,-0.42761 -0.0915,-0.85523 -0.12183,-1.28286 -0.0915,-0.88579 -0.15231,-1.8021 -0.24369,-2.6879 -0.0915,-1.16069 -0.21325,-2.32136 -0.33509,-3.48205 -0.15229,-1.61885 -0.33505,-3.17661 -0.48736,-4.73438 -5.422,-49.66504 -18.33735,-89.21991 -38.04545,-117.778791 -0.48739,-0.73307 -1.00522,-1.466139 -1.52305,-2.199198 -22.08402,-31.643879 -51.75279,-49.298497 -86.72171,-51.650409 -1.30981,-0.09163 -2.61963,-0.152721 -3.95989,-0.183266 -1.37074,-0.03054 -2.711,-0.06108 -4.08175,-0.06108 -1.03565,0 -2.07133,0 -3.10699,0.06108 h -0.2437 c -0.12183,-0.03054 -0.21322,0 -0.33506,0 h -0.24368 c -1.03566,-0.06108 -2.07132,-0.06108 -3.10699,-0.06108 -1.37072,0 -2.71099,0.03054 -4.08174,0.06108 -36.67474,1.221773 -67.77514,18.998561 -90.68161,51.833675 -0.51785,0.733059 -1.03567,1.466128 -1.52306,2.199198 -19.70804,28.558881 -32.6234,68.113751 -38.04541,117.778791 -0.21323,1.98539 -0.42647,4.03186 -0.60924,6.07833 -0.0304,0.45818 -0.0915,0.94688 -0.12183,1.40506 -0.12186,1.13012 -0.24368,2.29081 -0.33507,3.42094 -0.0304,0.42763 -0.0609,0.85525 -0.12185,1.28286 -0.0304,0.33598 -0.0609,0.64143 -0.0609,0.97742 -0.15232,1.71048 -0.27416,3.45151 -0.39601,5.22307 -0.18276,2.07703 -0.33508,4.18458 -0.42643,6.29214 -0.12186,2.10754 -0.21323,4.24566 -0.33508,6.38377 -0.0609,1.74102 -0.1523,3.48206 -0.18277,5.25361 -0.0304,0.39708 -0.0609,0.8247 -0.0609,1.22179 -0.0609,2.19919 -0.12184,4.36781 -0.18277,6.59755 -0.0304,1.74104 -0.0609,3.5126 -0.0609,5.31473 -0.0304,0.12216 -0.0304,0.24435 -0.0304,0.36652 v 0.73307 0.24435 2.77955 0.24433 0.58035 c 0,0.18327 0,0.36652 0.0304,0.51926 0,1.8021 0.0305,3.57368 0.0609,5.3147 0.0609,2.22974 0.12185,4.42892 0.18277,6.59759 0,0.42761 0.0304,0.82467 0.0609,1.25231 0.0304,1.74102 0.12183,3.51258 0.18277,5.22308 0.12185,2.13808 0.21322,4.2762 0.33508,6.38376 0.0915,2.13809 0.24367,4.24566 0.42643,6.32266 0.0304,0.39707 0.0304,0.79417 0.0915,1.19123 0.0609,0.91634 0.12185,1.83267 0.18278,2.74898 l 0.0915,1.09962 c 0.0608,0.54979 0.0915,1.09959 0.15232,1.64938 0.15231,1.86322 0.33505,3.75696 0.51783,5.58961 0.18275,1.92428 0.36553,3.81804 0.57878,5.71178 0.0303,0.12217 0.0303,0.27491 0.0303,0.39708 5.42199,49.66504 18.33738,89.1894 38.04541,117.77888 0.4874,0.73306 1.00521,1.46611 1.52305,2.1992 22.08405,31.6439 51.75279,49.29852 86.72172,51.65043 1.30981,0.061 2.61963,0.15271 3.95991,0.18325 1.34028,0.0306 2.71102,0.0612 4.08174,0.0612 1.03567,0 2.07132,0 3.10699,-0.0612 h 0.24368 c 0.0915,0.0306 0.21323,0.0306 0.33506,0 0.0608,0.0306 0.15231,0 0.2437,0 1.03566,0.0612 2.07133,0.0612 3.10699,0.0612 1.37074,0 2.74147,-0.0304 4.08174,-0.0612 1.34026,-0.0306 2.65008,-0.12218 3.95989,-0.18325 34.96893,-2.35191 64.6377,-20.00653 86.72172,-51.65043 0.51783,-0.73309 1.03566,-1.46614 1.52303,-2.1992 19.70811,-28.58948 32.62347,-68.11384 38.04548,-117.77888 0.18276,-1.55777 0.33506,-3.14605 0.48736,-4.73435 0.0608,-0.67197 0.12183,-1.34398 0.18277,-2.01595 l 0.0915,-1.00795 c 0.0304,-0.15272 0.061,-0.30545 0.061,-0.4887 0.0915,-0.88579 0.15228,-1.77158 0.2437,-2.65737 0.0915,-1.00796 0.15229,-2.01593 0.24367,-3.02388 0.12185,-1.49668 0.24369,-2.96281 0.36554,-4.45948 0.15229,-2.10754 0.27414,-4.18457 0.39598,-6.32266 0.12185,-2.10756 0.24369,-4.24568 0.33508,-6.38376 0.0915,-2.13812 0.18275,-4.30676 0.24367,-6.47539 0.0305,-0.91635 0.0609,-1.83267 0.0609,-2.74901 0.0609,-1.28286 0.0915,-2.56572 0.12183,-3.84858 0.0304,-1.74102 0.0609,-3.5126 0.0609,-5.3147 0.0304,-0.15274 0.0304,-0.33599 0.0304,-0.51926 v -0.58035 -0.24433 -2.77955 -0.24435 -0.73307 -0.0915 c 0,-0.0917 0,-0.18327 -0.0304,-0.27489 z M 429.67268,425.8588 c -0.30459,0 -0.60921,0 -0.88334,-0.0305 h -0.27416 c -0.24368,0 -0.45691,0 -0.67013,-0.0306 -0.0304,0.0306 -0.0609,0 -0.0609,0 h -0.36553 c -0.12185,0 -0.24367,0 -0.36553,-0.0304 -0.36551,0 -0.73104,-0.0306 -1.09658,-0.0917 -42.40134,-3.57369 -73.34947,-59.9585 -76.24323,-163.41208 -0.12184,-4.6122 -0.18276,-9.28548 -0.21323,-14.08095 v -0.12224 c 0.0304,-4.79545 0.0915,-9.46873 0.21323,-14.08092 2.89376,-103.48412 33.84189,-159.868877 76.24323,-163.442564 l 1.09658,-0.0917 c 0.12186,0 0.24368,0 0.36553,-0.0305 0.0915,-0.0306 0.18277,-0.0306 0.27414,0 h 0.0915 c 0.0304,0 0.0304,0 0.0609,0 h 0.18275 0.0304 c 0.24368,-0.0306 0.45692,-0.0306 0.73106,-0.0306 0.51784,-0.0305 1.00522,-0.0305 1.52304,-0.0305 0.30461,0 0.6092,0 0.88336,0.0305 0.33506,0 0.63968,0 0.9443,0.0306 0.0609,-0.0306 0.0915,-0.0306 0.15229,0 0.0915,-0.0306 0.18277,0 0.27413,0 0.0915,0.0305 0.18278,0.0305 0.30463,0.0305 0.36552,0.0305 0.76151,0.061 1.15749,0.0917 42.40135,3.573687 73.34948,59.958444 76.24324,163.442564 0.12184,4.61219 0.18277,9.28547 0.21324,14.08092 v 0.12217 c -0.0305,4.79547 -0.0915,9.46875 -0.21324,14.08094 -2.89376,103.45358 -33.84189,159.83839 -76.24324,163.41209 -0.36552,0.061 -0.76151,0.0915 -1.15749,0.0915 -0.21323,0.0304 -0.42644,0.0304 -0.67015,0.0304 0,0 -0.0304,0 -0.0609,0 -0.21323,0.0306 -0.42648,0.0306 -0.67015,0.0306 h -0.27415 c -0.48736,0.0306 -1.0052,0.0306 -1.52303,0.0306 z"
   id="path10"
   inkscape:connector-curvature="0"
   style="stroke-width:3.05025029; fill: #000000;" />
</svg>
