<svg width="851" height="851" viewBox="0 0 851 851" fill="none" xmlns="http://www.w3.org/2000/svg">
<rect width="851" height="851" fill="white"/>
<path d="M270.327 262.216V208H83V262.216H145.209V584.673H83V638.919H270.327V584.673H208.149V262.216H270.327Z" fill="black"/>
<path d="M777.327 262.216V208H590V262.216H652.178V584.673H590V638.919H777.327V584.673H715.118V262.216H777.327Z" fill="black"/>
<path d="M426.774 463.379C448.949 463.379 466.926 445.355 466.926 423.122C466.926 400.888 448.949 382.864 426.774 382.864C404.598 382.864 386.621 400.888 386.621 423.122C386.621 445.355 404.598 463.379 426.774 463.379Z" fill="black"/>
<path d="M570.81 420.372C570.81 418.57 570.78 416.799 570.749 415.058C570.688 412.828 570.628 410.659 570.567 408.46C570.506 406.291 570.414 404.123 570.323 401.985C570.231 399.847 570.11 397.708 569.988 395.601C569.866 393.493 569.744 391.386 569.592 389.309C569.439 387.232 569.287 385.155 569.104 383.108C569.074 382.681 569.013 382.253 568.982 381.825C568.891 380.94 568.83 380.023 568.739 379.138C568.647 377.977 568.525 376.816 568.404 375.655C568.251 374.037 568.068 372.479 567.916 370.921C562.493 321.256 549.576 281.701 529.866 253.142C529.378 252.409 528.86 251.676 528.343 250.943C506.256 219.299 476.583 201.645 441.61 199.293C440.3 199.201 438.99 199.14 437.649 199.109C436.278 199.079 434.938 199.048 433.567 199.048C432.531 199.048 431.495 199.048 430.46 199.109H430.216C430.094 199.079 430.003 199.109 429.881 199.109H429.637C428.601 199.048 427.565 199.048 426.53 199.048C425.159 199.048 423.818 199.079 422.447 199.109C385.768 200.331 354.663 218.108 331.754 250.943C331.236 251.676 330.718 252.409 330.231 253.142C310.52 281.701 297.603 321.256 292.18 370.921C291.967 372.906 291.754 374.953 291.571 376.999C291.541 377.458 291.48 377.946 291.449 378.404C291.327 379.535 291.206 380.695 291.114 381.825C291.084 382.253 291.053 382.681 290.992 383.108C290.962 383.444 290.931 383.75 290.931 384.086C290.779 385.796 290.657 387.537 290.535 389.309C290.353 391.386 290.2 393.493 290.109 395.601C289.987 397.708 289.896 399.847 289.774 401.985C289.713 403.726 289.621 405.467 289.591 407.238C289.56 407.635 289.53 408.063 289.53 408.46C289.469 410.659 289.408 412.828 289.347 415.058C289.317 416.799 289.286 418.57 289.286 420.372C289.256 420.495 289.256 420.617 289.256 420.739V421.472V421.716V424.496V424.74V425.321C289.256 425.504 289.256 425.687 289.286 425.84C289.286 427.642 289.317 429.413 289.347 431.154C289.408 433.384 289.469 435.583 289.53 437.752C289.53 438.18 289.56 438.577 289.591 439.004C289.621 440.745 289.713 442.517 289.774 444.227C289.896 446.366 289.987 448.504 290.109 450.611C290.2 452.749 290.353 454.857 290.535 456.934C290.566 457.331 290.566 457.728 290.627 458.125C290.688 459.041 290.749 459.958 290.81 460.874L290.901 461.974C290.962 462.524 290.993 463.073 291.053 463.623C291.206 465.486 291.389 467.38 291.571 469.213C291.754 471.137 291.937 473.031 292.15 474.924C292.181 475.047 292.181 475.199 292.181 475.322C297.603 524.987 310.52 564.511 330.231 593.1C330.718 593.833 331.236 594.567 331.754 595.3C353.841 626.944 383.514 644.598 418.487 646.95C419.797 647.011 421.107 647.103 422.447 647.133C423.788 647.164 425.159 647.195 426.53 647.195C427.566 647.195 428.601 647.195 429.637 647.133H429.881C429.972 647.164 430.094 647.164 430.216 647.133C430.277 647.164 430.368 647.133 430.46 647.133C431.495 647.195 432.531 647.195 433.567 647.195C434.938 647.195 436.309 647.164 437.649 647.133C438.99 647.103 440.3 647.011 441.61 646.95C476.583 644.598 506.256 626.944 528.343 595.3C528.861 594.567 529.378 593.833 529.866 593.1C549.577 564.511 562.494 524.987 567.916 475.322C568.099 473.764 568.251 472.176 568.404 470.587C568.464 469.915 568.526 469.243 568.587 468.571L568.678 467.563C568.708 467.411 568.739 467.258 568.739 467.075C568.831 466.189 568.891 465.303 568.983 464.417C569.074 463.409 569.135 462.401 569.226 461.393C569.348 459.897 569.47 458.431 569.592 456.934C569.744 454.826 569.866 452.749 569.988 450.611C570.11 448.504 570.232 446.366 570.323 444.227C570.415 442.089 570.506 439.921 570.567 437.752C570.597 436.836 570.628 435.919 570.628 435.003C570.689 433.72 570.719 432.437 570.75 431.154C570.78 429.413 570.811 427.642 570.811 425.84C570.841 425.687 570.841 425.504 570.841 425.321V424.74V424.496V421.716V421.472V420.739V420.647C570.841 420.556 570.841 420.464 570.81 420.372ZM429.728 600.859C429.424 600.859 429.119 600.859 428.845 600.828H428.571C428.327 600.828 428.114 600.828 427.9 600.798C427.87 600.828 427.839 600.798 427.839 600.798H427.474C427.352 600.798 427.23 600.798 427.108 600.767C426.743 600.767 426.377 600.737 426.012 600.676C383.605 597.102 352.653 540.717 349.758 437.263C349.637 432.651 349.576 427.978 349.545 423.182V423.06C349.576 418.265 349.637 413.592 349.758 408.979C352.653 305.495 383.605 249.11 426.012 245.537L427.108 245.445C427.23 245.445 427.352 245.445 427.474 245.415C427.565 245.384 427.657 245.384 427.748 245.415H427.84C427.87 245.415 427.87 245.415 427.9 245.415H428.083H428.114C428.357 245.384 428.571 245.384 428.845 245.384C429.363 245.353 429.85 245.353 430.368 245.353C430.673 245.353 430.977 245.353 431.252 245.384C431.587 245.384 431.891 245.384 432.196 245.415C432.257 245.384 432.287 245.384 432.348 245.415C432.44 245.384 432.531 245.415 432.622 245.415C432.714 245.445 432.805 245.445 432.927 245.445C433.293 245.476 433.689 245.506 434.085 245.537C476.492 249.11 507.444 305.495 510.338 408.979C510.46 413.592 510.521 418.265 510.551 423.06V423.182C510.521 427.978 510.46 432.651 510.338 437.263C507.444 540.717 476.492 597.102 434.085 600.675C433.719 600.736 433.323 600.767 432.927 600.767C432.714 600.797 432.501 600.797 432.257 600.797C432.257 600.797 432.226 600.797 432.196 600.797C431.983 600.828 431.769 600.828 431.526 600.828H431.252C430.764 600.859 430.246 600.859 429.728 600.859Z" fill="black"/>
</svg>
