<svg width="1050" height="1050" viewBox="0 0 1050 1050" fill="none" xmlns="http://www.w3.org/2000/svg">
<path d="M298.262 361.878V307.662H110.959V361.878H173.16V684.334H110.959V738.581H298.262V684.334H236.092V361.878H298.262Z" fill="black"/>
<path d="M940.741 361.878V307.662H753.438V361.878H815.608V684.334H753.438V738.581H940.741V684.334H878.54V361.878H940.741Z" fill="black"/>
<path d="M526.718 563.379C548.89 563.379 566.865 545.355 566.865 523.121C566.865 500.888 548.89 482.864 526.718 482.864C504.545 482.864 486.57 500.888 486.57 523.121C486.57 545.355 504.545 563.379 526.718 563.379Z" fill="black"/>
<path d="M670.737 520.372C670.737 518.57 670.706 516.799 670.676 515.058C670.615 512.828 670.554 510.659 670.493 508.46C670.432 506.291 670.341 504.123 670.249 501.985C670.158 499.847 670.036 497.708 669.914 495.601C669.792 493.493 669.671 491.386 669.518 489.309C669.366 487.232 669.214 485.155 669.031 483.108C669.001 482.681 668.939 482.253 668.909 481.825C668.818 480.94 668.757 480.023 668.665 479.138C668.574 477.977 668.452 476.816 668.33 475.655C668.178 474.037 667.995 472.479 667.843 470.921C662.421 421.256 649.506 381.701 629.798 353.142C629.31 352.409 628.792 351.676 628.275 350.943C606.19 319.299 576.522 301.645 541.553 299.293C540.243 299.201 538.933 299.14 537.593 299.109C536.222 299.079 534.882 299.048 533.511 299.048C532.476 299.048 531.44 299.048 530.404 299.109H530.16C530.039 299.079 529.947 299.109 529.825 299.109H529.582C528.546 299.048 527.51 299.048 526.475 299.048C525.104 299.048 523.764 299.079 522.393 299.109C485.718 300.331 454.618 318.108 431.711 350.943C431.194 351.676 430.676 352.409 430.188 353.142C410.48 381.701 397.565 421.256 392.143 470.921C391.93 472.906 391.716 474.953 391.534 476.999C391.503 477.458 391.442 477.946 391.412 478.404C391.29 479.535 391.168 480.695 391.077 481.825C391.046 482.253 391.016 482.681 390.955 483.108C390.925 483.444 390.894 483.75 390.894 484.086C390.742 485.796 390.62 487.537 390.498 489.309C390.315 491.386 390.163 493.493 390.072 495.601C389.95 497.708 389.858 499.847 389.737 501.985C389.676 503.726 389.584 505.467 389.554 507.238C389.523 507.635 389.493 508.063 389.493 508.46C389.432 510.659 389.371 512.828 389.31 515.058C389.28 516.799 389.249 518.57 389.249 520.372C389.219 520.495 389.219 520.617 389.219 520.739V521.472V521.716V524.496V524.74V525.321C389.219 525.504 389.219 525.687 389.249 525.84C389.249 527.642 389.28 529.413 389.31 531.154C389.371 533.384 389.432 535.583 389.493 537.752C389.493 538.18 389.523 538.577 389.554 539.004C389.584 540.745 389.676 542.517 389.737 544.227C389.858 546.366 389.95 548.504 390.072 550.611C390.163 552.749 390.315 554.857 390.498 556.934C390.528 557.331 390.528 557.728 390.59 558.125C390.65 559.041 390.711 559.958 390.772 560.874L390.864 561.974C390.925 562.524 390.955 563.073 391.016 563.623C391.168 565.486 391.351 567.38 391.534 569.213C391.717 571.137 391.899 573.031 392.113 574.924C392.143 575.047 392.143 575.199 392.143 575.322C397.565 624.987 410.48 664.511 430.188 693.1C430.676 693.833 431.194 694.567 431.711 695.3C453.796 726.944 483.464 744.598 518.433 746.95C519.743 747.011 521.053 747.103 522.393 747.133C523.733 747.164 525.104 747.195 526.475 747.195C527.511 747.195 528.546 747.195 529.582 747.133H529.826C529.917 747.164 530.039 747.164 530.161 747.133C530.221 747.164 530.313 747.133 530.404 747.133C531.44 747.195 532.476 747.195 533.511 747.195C534.882 747.195 536.253 747.164 537.593 747.133C538.933 747.103 540.243 747.011 541.553 746.95C576.522 744.598 606.191 726.944 628.275 695.3C628.792 694.567 629.31 693.833 629.798 693.1C649.506 664.511 662.421 624.987 667.843 575.322C668.026 573.764 668.178 572.176 668.33 570.587C668.391 569.915 668.452 569.243 668.513 568.571L668.605 567.563C668.635 567.411 668.666 567.258 668.666 567.075C668.757 566.189 668.818 565.303 668.909 564.417C669.001 563.409 669.062 562.401 669.153 561.393C669.275 559.897 669.397 558.431 669.519 556.934C669.671 554.826 669.793 552.749 669.915 550.611C670.036 548.504 670.158 546.366 670.25 544.227C670.341 542.089 670.432 539.921 670.493 537.752C670.524 536.836 670.554 535.919 670.554 535.003C670.615 533.72 670.646 532.437 670.676 531.154C670.707 529.413 670.737 527.642 670.737 525.84C670.767 525.687 670.767 525.504 670.767 525.321V524.74V524.496V521.716V521.472V520.739V520.647C670.767 520.556 670.767 520.464 670.737 520.372ZM529.673 700.859C529.368 700.859 529.064 700.859 528.79 700.828H528.515C528.272 700.828 528.059 700.828 527.845 700.798C527.815 700.828 527.784 700.798 527.784 700.798H527.419C527.297 700.798 527.175 700.798 527.053 700.767C526.688 700.767 526.322 700.737 525.957 700.676C483.555 697.102 452.607 640.717 449.714 537.263C449.592 532.651 449.531 527.978 449.5 523.182V523.06C449.531 518.265 449.592 513.592 449.714 508.979C452.607 405.495 483.555 349.11 525.957 345.537L527.053 345.445C527.175 345.445 527.297 345.445 527.419 345.415C527.51 345.384 527.602 345.384 527.693 345.415H527.785C527.815 345.415 527.815 345.415 527.845 345.415H528.028H528.059C528.302 345.384 528.516 345.384 528.79 345.384C529.307 345.353 529.795 345.353 530.313 345.353C530.617 345.353 530.922 345.353 531.196 345.384C531.531 345.384 531.836 345.384 532.14 345.415C532.201 345.384 532.232 345.384 532.293 345.415C532.384 345.384 532.475 345.415 532.567 345.415C532.658 345.445 532.75 345.445 532.871 345.445C533.237 345.476 533.633 345.506 534.029 345.537C576.43 349.11 607.378 405.495 610.272 508.979C610.394 513.592 610.455 518.265 610.485 523.06V523.182C610.455 527.978 610.394 532.651 610.272 537.263C607.378 640.717 576.43 697.102 534.029 700.675C533.663 700.736 533.267 700.767 532.871 700.767C532.658 700.797 532.445 700.797 532.201 700.797C532.201 700.797 532.171 700.797 532.14 700.797C531.927 700.828 531.714 700.828 531.47 700.828H531.196C530.709 700.859 530.191 700.859 529.673 700.859Z" fill="black"/>
</svg>
