<svg width="851" height="850" viewBox="0 0 851 850" fill="none" xmlns="http://www.w3.org/2000/svg">
<path d="M264.303 262.216V208H77V262.216H139.201V584.673H77V638.919H264.303V584.673H202.133V262.216H264.303Z" fill="black"/>
<path d="M783.303 262.216V208H596V262.216H658.17V584.673H596V638.919H783.303V584.673H721.102V262.216H783.303Z" fill="black"/>
<path d="M426.718 463.379C448.89 463.379 466.865 445.355 466.865 423.121C466.865 400.888 448.89 382.864 426.718 382.864C404.545 382.864 386.57 400.888 386.57 423.121C386.57 445.355 404.545 463.379 426.718 463.379Z" fill="black"/>
<path d="M570.737 420.372C570.737 418.57 570.706 416.799 570.676 415.058C570.615 412.828 570.554 410.659 570.493 408.46C570.432 406.291 570.341 404.123 570.249 401.985C570.158 399.847 570.036 397.708 569.914 395.601C569.792 393.493 569.671 391.386 569.518 389.309C569.366 387.232 569.214 385.155 569.031 383.108C569.001 382.681 568.939 382.253 568.909 381.825C568.818 380.94 568.757 380.023 568.665 379.138C568.574 377.977 568.452 376.816 568.33 375.655C568.178 374.037 567.995 372.479 567.843 370.921C562.421 321.256 549.506 281.701 529.798 253.142C529.31 252.409 528.792 251.676 528.275 250.943C506.19 219.299 476.522 201.645 441.553 199.293C440.243 199.201 438.933 199.14 437.593 199.109C436.222 199.079 434.882 199.048 433.511 199.048C432.476 199.048 431.44 199.048 430.404 199.109H430.16C430.039 199.079 429.947 199.109 429.825 199.109H429.582C428.546 199.048 427.51 199.048 426.475 199.048C425.104 199.048 423.764 199.079 422.393 199.109C385.718 200.331 354.618 218.108 331.711 250.943C331.194 251.676 330.676 252.409 330.188 253.142C310.48 281.701 297.565 321.256 292.143 370.921C291.93 372.906 291.716 374.953 291.534 376.999C291.503 377.458 291.442 377.946 291.412 378.404C291.29 379.535 291.168 380.695 291.077 381.825C291.046 382.253 291.016 382.681 290.955 383.108C290.925 383.444 290.894 383.75 290.894 384.086C290.742 385.796 290.62 387.537 290.498 389.309C290.315 391.386 290.163 393.493 290.072 395.601C289.95 397.708 289.858 399.847 289.737 401.985C289.676 403.726 289.584 405.467 289.554 407.238C289.523 407.635 289.493 408.063 289.493 408.46C289.432 410.659 289.371 412.828 289.31 415.058C289.28 416.799 289.249 418.57 289.249 420.372C289.219 420.495 289.219 420.617 289.219 420.739V421.472V421.716V424.496V424.74V425.321C289.219 425.504 289.219 425.687 289.249 425.84C289.249 427.642 289.28 429.413 289.31 431.154C289.371 433.384 289.432 435.583 289.493 437.752C289.493 438.18 289.523 438.577 289.554 439.004C289.584 440.745 289.676 442.517 289.737 444.227C289.858 446.366 289.95 448.504 290.072 450.611C290.163 452.749 290.315 454.857 290.498 456.934C290.528 457.331 290.528 457.728 290.59 458.125C290.65 459.041 290.711 459.958 290.772 460.874L290.864 461.974C290.925 462.524 290.955 463.073 291.016 463.623C291.168 465.486 291.351 467.38 291.534 469.213C291.717 471.137 291.899 473.031 292.113 474.924C292.143 475.047 292.143 475.199 292.143 475.322C297.565 524.987 310.48 564.511 330.188 593.1C330.676 593.833 331.194 594.567 331.711 595.3C353.796 626.944 383.464 644.598 418.433 646.95C419.743 647.011 421.053 647.103 422.393 647.133C423.733 647.164 425.104 647.195 426.475 647.195C427.511 647.195 428.546 647.195 429.582 647.133H429.826C429.917 647.164 430.039 647.164 430.161 647.133C430.221 647.164 430.313 647.133 430.404 647.133C431.44 647.195 432.476 647.195 433.511 647.195C434.882 647.195 436.253 647.164 437.593 647.133C438.933 647.103 440.243 647.011 441.553 646.95C476.522 644.598 506.191 626.944 528.275 595.3C528.792 594.567 529.31 593.833 529.798 593.1C549.506 564.511 562.421 524.987 567.843 475.322C568.026 473.764 568.178 472.176 568.33 470.587C568.391 469.915 568.452 469.243 568.513 468.571L568.605 467.563C568.635 467.411 568.666 467.258 568.666 467.075C568.757 466.189 568.818 465.303 568.909 464.417C569.001 463.409 569.062 462.401 569.153 461.393C569.275 459.897 569.397 458.431 569.519 456.934C569.671 454.826 569.793 452.749 569.915 450.611C570.036 448.504 570.158 446.366 570.25 444.227C570.341 442.089 570.432 439.921 570.493 437.752C570.524 436.836 570.554 435.919 570.554 435.003C570.615 433.72 570.646 432.437 570.676 431.154C570.707 429.413 570.737 427.642 570.737 425.84C570.767 425.687 570.767 425.504 570.767 425.321V424.74V424.496V421.716V421.472V420.739V420.647C570.767 420.556 570.767 420.464 570.737 420.372ZM429.673 600.859C429.368 600.859 429.064 600.859 428.79 600.828H428.515C428.272 600.828 428.059 600.828 427.845 600.798C427.815 600.828 427.784 600.798 427.784 600.798H427.419C427.297 600.798 427.175 600.798 427.053 600.767C426.688 600.767 426.322 600.737 425.957 600.676C383.555 597.102 352.607 540.717 349.714 437.263C349.592 432.651 349.531 427.978 349.5 423.182V423.06C349.531 418.265 349.592 413.592 349.714 408.979C352.607 305.495 383.555 249.11 425.957 245.537L427.053 245.445C427.175 245.445 427.297 245.445 427.419 245.415C427.51 245.384 427.602 245.384 427.693 245.415H427.785C427.815 245.415 427.815 245.415 427.845 245.415H428.028H428.059C428.302 245.384 428.516 245.384 428.79 245.384C429.307 245.353 429.795 245.353 430.313 245.353C430.617 245.353 430.922 245.353 431.196 245.384C431.531 245.384 431.836 245.384 432.14 245.415C432.201 245.384 432.232 245.384 432.293 245.415C432.384 245.384 432.475 245.415 432.567 245.415C432.658 245.445 432.75 245.445 432.871 245.445C433.237 245.476 433.633 245.506 434.029 245.537C476.43 249.11 507.378 305.495 510.272 408.979C510.394 413.592 510.455 418.265 510.485 423.06V423.182C510.455 427.978 510.394 432.651 510.272 437.263C507.378 540.717 476.43 597.102 434.029 600.675C433.663 600.736 433.267 600.767 432.871 600.767C432.658 600.797 432.445 600.797 432.201 600.797C432.201 600.797 432.171 600.797 432.14 600.797C431.927 600.828 431.714 600.828 431.47 600.828H431.196C430.709 600.859 430.191 600.859 429.673 600.859Z" fill="black"/>
</svg>
