<svg width="775" height="775" viewBox="0 0 775 775" fill="none" xmlns="http://www.w3.org/2000/svg">
<rect width="775" height="775" fill="black"/>
<path d="M234.598 224.216V170H64V224.216H120.653V546.673H64V600.919H234.598V546.673H177.972V224.216H234.598Z" fill="white"/>
<path d="M718.598 224.216V170H548V224.216H604.625V546.673H548V600.919H718.598V546.673H661.944V224.216H718.598Z" fill="white"/>
<path d="M388.659 425.379C408.854 425.379 425.226 407.355 425.226 385.122C425.226 362.888 408.854 344.864 388.659 344.864C368.464 344.864 352.093 362.888 352.093 385.122C352.093 407.355 368.464 425.379 388.659 425.379Z" fill="white"/>
<path d="M519.833 382.372C519.833 380.57 519.806 378.799 519.778 377.058C519.722 374.828 519.667 372.659 519.612 370.46C519.556 368.291 519.473 366.123 519.39 363.985C519.306 361.847 519.195 359.708 519.084 357.601C518.973 355.493 518.862 353.386 518.724 351.309C518.585 349.232 518.446 347.155 518.28 345.108C518.252 344.681 518.197 344.253 518.169 343.825C518.086 342.94 518.03 342.023 517.947 341.138C517.864 339.977 517.753 338.816 517.642 337.655C517.503 336.037 517.337 334.479 517.198 332.921C512.259 283.256 500.496 243.701 482.546 215.142C482.102 214.409 481.63 213.676 481.158 212.943C461.044 181.299 434.021 163.645 402.171 161.293C400.978 161.201 399.785 161.14 398.565 161.109C397.316 161.079 396.095 161.048 394.847 161.048C393.904 161.048 392.96 161.048 392.017 161.109H391.795C391.684 161.079 391.601 161.109 391.49 161.109H391.268C390.325 161.048 389.381 161.048 388.438 161.048C387.19 161.048 385.969 161.079 384.72 161.109C351.317 162.331 322.99 180.108 302.127 212.943C301.655 213.676 301.183 214.409 300.739 215.142C282.789 243.701 271.026 283.256 266.087 332.921C265.893 334.906 265.699 336.953 265.532 338.999C265.505 339.458 265.449 339.946 265.421 340.404C265.31 341.535 265.199 342.695 265.116 343.825C265.088 344.253 265.061 344.681 265.005 345.108C264.977 345.444 264.95 345.75 264.95 346.086C264.811 347.796 264.7 349.537 264.589 351.309C264.423 353.386 264.284 355.493 264.201 357.601C264.09 359.708 264.006 361.847 263.895 363.985C263.84 365.726 263.757 367.467 263.729 369.238C263.701 369.635 263.673 370.063 263.673 370.46C263.618 372.659 263.562 374.828 263.507 377.058C263.479 378.799 263.452 380.57 263.452 382.372C263.424 382.495 263.424 382.617 263.424 382.739V383.472V383.716V386.496V386.74V387.321C263.424 387.504 263.424 387.687 263.452 387.84C263.452 389.642 263.479 391.413 263.507 393.154C263.562 395.384 263.618 397.583 263.673 399.752C263.673 400.18 263.701 400.577 263.729 401.004C263.757 402.745 263.84 404.517 263.895 406.227C264.006 408.366 264.09 410.504 264.201 412.611C264.284 414.749 264.423 416.857 264.589 418.934C264.617 419.331 264.617 419.728 264.672 420.125C264.728 421.041 264.783 421.958 264.839 422.874L264.922 423.974C264.978 424.524 265.005 425.073 265.061 425.623C265.2 427.486 265.366 429.38 265.533 431.213C265.699 433.137 265.865 435.031 266.06 436.924C266.087 437.047 266.087 437.199 266.087 437.322C271.026 486.987 282.789 526.511 300.739 555.1C301.183 555.833 301.655 556.567 302.127 557.3C322.241 588.944 349.264 606.598 381.114 608.95C382.307 609.011 383.5 609.103 384.721 609.133C385.941 609.164 387.19 609.195 388.438 609.195C389.381 609.195 390.325 609.195 391.268 609.133H391.49C391.573 609.164 391.684 609.164 391.795 609.133C391.851 609.164 391.934 609.133 392.017 609.133C392.96 609.195 393.904 609.195 394.847 609.195C396.096 609.195 397.344 609.164 398.565 609.133C399.785 609.103 400.978 609.011 402.171 608.95C434.022 606.598 461.044 588.944 481.159 557.3C481.63 556.567 482.102 555.833 482.546 555.1C500.496 526.511 512.26 486.987 517.198 437.322C517.364 435.764 517.503 434.176 517.642 432.587C517.697 431.915 517.753 431.243 517.808 430.571L517.892 429.563C517.919 429.411 517.947 429.258 517.947 429.075C518.031 428.189 518.086 427.303 518.169 426.417C518.253 425.409 518.308 424.401 518.391 423.393C518.502 421.897 518.613 420.431 518.724 418.934C518.863 416.826 518.974 414.749 519.085 412.611C519.196 410.504 519.307 408.366 519.39 406.227C519.473 404.089 519.556 401.921 519.612 399.752C519.64 398.836 519.667 397.919 519.667 397.003C519.723 395.72 519.751 394.437 519.778 393.154C519.806 391.413 519.834 389.642 519.834 387.84C519.861 387.687 519.861 387.504 519.861 387.321V386.74V386.496V383.716V383.472V382.739V382.647C519.861 382.556 519.861 382.464 519.833 382.372ZM391.351 562.859C391.074 562.859 390.796 562.859 390.546 562.828H390.297C390.075 562.828 389.881 562.828 389.686 562.798C389.659 562.828 389.631 562.798 389.631 562.798H389.298C389.187 562.798 389.076 562.798 388.965 562.767C388.632 562.767 388.299 562.737 387.966 562.676C349.347 559.102 321.159 502.717 318.523 399.263C318.412 394.651 318.357 389.978 318.329 385.182V385.06C318.357 380.265 318.412 375.592 318.523 370.979C321.159 267.495 349.347 211.11 387.966 207.537L388.965 207.445C389.076 207.445 389.187 207.445 389.298 207.415C389.381 207.384 389.464 207.384 389.548 207.415H389.631C389.659 207.415 389.659 207.415 389.687 207.415H389.853H389.881C390.103 207.384 390.297 207.384 390.547 207.384C391.018 207.353 391.462 207.353 391.934 207.353C392.211 207.353 392.489 207.353 392.738 207.384C393.043 207.384 393.321 207.384 393.598 207.415C393.654 207.384 393.682 207.384 393.737 207.415C393.82 207.384 393.904 207.415 393.987 207.415C394.07 207.445 394.153 207.445 394.264 207.445C394.597 207.476 394.958 207.506 395.318 207.537C433.938 211.11 462.126 267.495 464.762 370.979C464.873 375.592 464.928 380.265 464.956 385.06V385.182C464.928 389.978 464.873 394.651 464.762 399.263C462.126 502.717 433.938 559.102 395.318 562.675C394.986 562.736 394.625 562.767 394.264 562.767C394.07 562.797 393.876 562.797 393.654 562.797C393.654 562.797 393.626 562.797 393.598 562.797C393.404 562.828 393.21 562.828 392.988 562.828H392.738C392.294 562.859 391.823 562.859 391.351 562.859Z" fill="white"/>
</svg>
